<svg width="49" height="49" xmlns="http://www.w3.org/2000/svg">

 <g>
  <title>background</title>
  <rect fill="none" id="canvas_background" height="51" width="51" y="-1" x="-1"/>
 </g>
 <g>
  <title>Layer 1</title>
  <g stroke="null" id="svg_17">
   <g stroke="null" transform="matrix(1.0305920246635862,0,0,1.0305920246635862,22.696451501443534,4.6448326637790345) " id="svg_15">
    <title stroke="null" transform="translate(-12.371773719787598,-8.85430908203125) translate(-9.097014427185059,6.064676761627197) translate(-11.312350273132324,-9.526189804077148) translate(-16.019832611083984,-8.831445693969727) translate(0.20538246631622314,-0.20538246631622314) translate(2.0538246631622314,-0.4107649326324463) translate(-10.474505424499512,-17.25212860107422) translate(34.384788513183594,0) translate(0,34.384788513183594) ">background</title>
    <rect stroke="null" fill-opacity="0" fill="#fff" id="svg_13" height="51" width="51" y="-5.630755" x="-23.631481"/>
    <g stroke="null" display="none" id="svg_11">
     <rect stroke="null" fill="url(#gridpattern)" stroke-width="0" y="-2.630755" x="-20.631481" height="400" width="580" id="svg_12"/>
    </g>
   </g>
   <g stroke="null" transform="matrix(1.0305920246635862,0,0,1.0305920246635862,22.696451501443534,4.6448326637790345) " id="svg_16">
    <title stroke="null" transform="translate(-12.371773719787598,-8.85430908203125) translate(-9.097014427185059,6.064676761627197) translate(-11.312350273132324,-9.526189804077148) translate(-16.019832611083984,-8.831445693969727) translate(0.20538246631622314,-0.20538246631622314) translate(2.0538246631622314,-0.4107649326324463) translate(-10.474505424499512,-17.25212860107422) translate(34.384788513183594,0) translate(0,34.384788513183594) ">Layer 1</title>
    <ellipse stroke="#000" ry="22.843307" rx="22.843307" id="svg_10" cy="19.86518" cx="2.709335" stroke-opacity="null" stroke-width="0" fill="#777777"/>
    <ellipse stroke="#000" ry="22.655765" rx="22.655765" id="svg_9" cy="18.677638" cx="1.146821" stroke-opacity="null" stroke-width="0" fill="#011c1b"/>
   </g>
  </g>
  <path stroke="null" id="svg_1" fill="#fff" d="m17.934227,27.970653q0,-0.854009 -0.604252,-1.458261t-1.458261,-0.604252t-1.458261,0.604252t-0.604252,1.458261t0.604252,1.458261t1.458261,0.604252t1.458261,-0.604252t0.604252,-1.458261zm16.500101,0q0,-0.854009 -0.604252,-1.458261t-1.458261,-0.604252t-1.458261,0.604252t-0.604252,1.458261t0.604252,1.458261t1.458261,0.604252t1.458261,-0.604252t0.604252,-1.458261zm-0.741215,-6.380899l-1.160163,-6.187538q-0.080567,-0.370608 -0.362551,-0.604252t-0.652592,-0.233644l-14.792083,0q-0.370608,0 -0.652592,0.233644t-0.362551,0.604252l-1.160163,6.187538q-0.080567,0.483401 0.225587,0.854009t0.789556,0.370608l17.11241,0q0.483401,0 0.789556,-0.370608t0.225587,-0.854009zm-3.641624,-9.861389q0,-0.322268 -0.225587,-0.547855t-0.547855,-0.225587l-10.312563,0q-0.322268,0 -0.547855,0.225587t-0.225587,0.547855t0.225587,0.547855t0.547855,0.225587l10.312563,0q0.322268,0 0.547855,-0.225587t0.225587,-0.547855zm6.445352,11.682201l0,9.716368l-2.062513,0l0,2.062513q0,0.854009 -0.604252,1.458261t-1.458261,0.604252t-1.458261,-0.604252t-0.604252,-1.458261l0,-2.062513l-12.375076,0l0,2.062513q0,0.854009 -0.604252,1.458261t-1.458261,0.604252t-1.458261,-0.604252t-0.604252,-1.458261l0,-2.062513l-2.062513,0l0,-9.716368q0,-1.804699 0.402835,-3.593284l1.659678,-7.315475q0.14502,-1.256844 1.571055,-2.207533t3.706077,-1.434091t5.035431,-0.483401t5.035431,0.483401t3.706077,1.434091t1.571055,2.207533l1.691905,7.315475q0.370608,1.643565 0.370608,3.593284z"/>
  <!-- Created with Method Draw - http://github.com/duopixel/Method-Draw/ -->
 </g>
</svg>