<svg width="49" height="49" xmlns="http://www.w3.org/2000/svg">
 <g>
  <title>background</title>
  <rect x="-1" y="-1" width="8.125121" height="8.125121" id="canvas_background" fill="none"/>
 </g>

 <g>
  <title>Layer 1</title>
  <g id="svg_17" stroke="null">
   <g id="svg_15" transform="matrix(1.0305920246635862,0,0,1.0305920246635862,22.696451501443534,4.6448326637790345) " stroke="null">
    <title>background</title>
    <rect x="-23.631481" y="-5.630755" width="51" height="51" id="svg_13" fill="#fff" fill-opacity="0" stroke="null"/>
    <g id="svg_11" display="none" stroke="null">
     <rect id="svg_12" width="580" height="400" x="-20.631481" y="-2.630755" stroke-width="0" fill="url(#gridpattern)" stroke="null"/>
    </g>
   </g>
   <g id="svg_16" transform="matrix(1.0305920246635862,0,0,1.0305920246635862,22.696451501443534,4.6448326637790345) " stroke="null">
    <title>Layer 1</title>
    <ellipse fill="#777777" stroke-width="0" stroke-opacity="null" cx="2.709335" cy="19.86518" id="svg_10" rx="22.843307" ry="22.843307" stroke="#000"/>
    <ellipse fill="#011c1b" stroke-width="0" stroke-opacity="null" cx="1.146821" cy="18.677638" id="svg_9" rx="22.655765" ry="22.655765" stroke="#000"/>
   </g>
  </g>
  <!-- Created with Method Draw - http://github.com/duopixel/Method-Draw/ -->
  <g stroke="null" id="svg_6">
   <path stroke="null" id="svg_5" fill="#fff" d="m16.664443,24.909127q0,-0.905141 -0.64457,-1.549712t-1.549712,-0.64457t-1.549712,0.64457t-0.64457,1.549712t0.64457,1.549712t1.549712,0.64457t1.549712,-0.64457t0.64457,-1.549712zm0.493713,-4.388564l13.933689,0l-1.220569,-4.895991q-0.027429,-0.109714 -0.192,-0.24t-0.287999,-0.130285l-10.532553,0q-0.123428,0 -0.287999,0.130285t-0.192,0.24l-1.220569,4.895991zm18.815966,4.388564q0,-0.905141 -0.64457,-1.549712t-1.549712,-0.64457t-1.549712,0.64457t-0.64457,1.549712t0.64457,1.549712t1.549712,0.64457t1.549712,-0.64457t0.64457,-1.549712zm2.194282,-1.316569l0,5.266276q0,0.192 -0.123428,0.315428t-0.315428,0.123428l-1.316569,0l0,1.755425q0,1.097141 -0.767999,1.86514t-1.86514,0.767999t-1.86514,-0.767999t-0.767999,-1.86514l0,-1.755425l-14.043403,0l0,1.755425q0,1.097141 -0.767999,1.86514t-1.86514,0.767999t-1.86514,-0.767999t-0.767999,-1.86514l0,-1.755425l-1.316569,0q-0.192,0 -0.315428,-0.123428t-0.123428,-0.315428l0,-5.266276q0,-1.275426 0.898284,-2.17371t2.17371,-0.898284l0.383999,0l1.439997,-5.746275q0.315428,-1.289141 1.426283,-2.159996t2.454853,-0.870856l10.532553,0q1.343998,0 2.454853,0.870856t1.426283,2.159996l1.439997,5.746275l0.383999,0q1.275426,0 2.17371,0.898284t0.898284,2.17371z"/>
  </g>
 </g>
</svg>