<svg width="49" height="49" xmlns="http://www.w3.org/2000/svg">
 <g>
  <title>background</title>
  <rect x="-1" y="-1" width="50.999204" height="50.999204" id="canvas_background" fill="none"/>
 </g>

 <g>
  <title>Layer 1</title>
  <g id="svg_17" stroke="null">
   <g id="svg_15" transform="matrix(1.0305920246635862,0,0,1.0305920246635862,22.696451501443534,4.6448326637790345) " stroke="null">
    <title>background</title>
    <rect x="-23.631481" y="-5.630755" width="51" height="51" id="svg_13" fill="#fff" fill-opacity="0" stroke="null"/>
    <g id="svg_11" display="none" stroke="null">
     <rect id="svg_12" width="580" height="400" x="-20.631481" y="-2.630755" stroke-width="0" fill="url(#gridpattern)" stroke="null"/>
    </g>
   </g>
   <g id="svg_16" transform="matrix(1.0305920246635862,0,0,1.0305920246635862,22.696451501443534,4.6448326637790345) " stroke="null">
    <title>Layer 1</title>
    <ellipse fill="#777777" stroke-width="0" stroke-opacity="null" cx="2.709335" cy="19.86518" id="svg_10" rx="22.843307" ry="22.843307" stroke="#000"/>
    <ellipse fill="#011c1b" stroke-width="0" stroke-opacity="null" cx="1.146821" cy="18.677638" id="svg_9" rx="22.655765" ry="22.655765" stroke="#000"/>
   </g>
  </g>
  <!-- Created with Method Draw - http://github.com/duopixel/Method-Draw/ -->
  <g stroke="null" id="svg_6">
   <path stroke="null" fill="#ffffff" id="svg_5" d="m34.639691,23.809549l0,-8.851877l1.475313,0l0,-4.425939l-23.605005,0l0,4.425939l1.475313,0l0,8.851877l-4.425939,0c0,1.374254 0.940512,2.530162 2.212969,2.857681l0,7.469509c0,0.814373 0.66094,1.475313 1.475313,1.475313l1.475313,0c0.814373,0 1.475313,-0.66094 1.475313,-1.475313l0,-1.475313l16.228441,0l0,1.475313c0,0.814373 0.66094,1.475313 1.475313,1.475313l1.475313,0c0.814373,0 1.475313,-0.66094 1.475313,-1.475313l0,-7.469509c1.272457,-0.327519 2.212969,-1.483427 2.212969,-2.857681l-4.425939,0zm-16.228441,2.950626c-1.222297,0 -2.212969,-0.99141 -2.212969,-2.212969s0.990673,-2.212969 2.212969,-2.212969s2.212969,0.99141 2.212969,2.212969s-0.990673,2.212969 -2.212969,2.212969zm4.425939,1.475313l-1.475313,0l0,-5.163595c0,-0.407186 0.33047,-0.737656 0.737656,-0.737656s0.737656,0.33047 0.737656,0.737656l0,5.163595zm2.212969,0l-1.475313,0l0,-5.163595c0,-0.407186 0.33047,-0.737656 0.737656,-0.737656c0.407924,0 0.737656,0.33047 0.737656,0.737656l0,5.163595zm2.212969,0l-1.475313,0l0,-5.163595c0,-0.407186 0.329732,-0.737656 0.737656,-0.737656s0.737656,0.33047 0.737656,0.737656l0,5.163595zm2.950626,-1.475313c-1.221559,0 -2.212969,-0.99141 -2.212969,-2.212969s0.99141,-2.212969 2.212969,-2.212969s2.212969,0.99141 2.212969,2.212969s-0.99141,2.212969 -2.212969,2.212969zm2.212969,-6.64776c-2.328044,-0.460298 -5.117123,-0.728805 -8.114221,-0.728805s-5.786177,0.268507 -8.114221,0.728805l0,-5.154743l16.228441,0l0,5.154743z"/>
  </g>
 </g>
</svg>