<svg width="49" height="49" xmlns="http://www.w3.org/2000/svg">
 <g>
  <title>background</title>
  <rect x="-1" y="-1" width="8.162197" height="8.162197" id="canvas_background" fill="none"/>
 </g>

 <g>
  <title>Layer 1</title>
  <g id="svg_17" stroke="null">
   <g id="svg_15" transform="matrix(1.0305920246635862,0,0,1.0305920246635862,22.696451501443534,4.6448326637790345) " stroke="null">
    <title>background</title>
    <rect x="-23.631481" y="-5.630755" width="51" height="51" id="svg_13" fill="#fff" fill-opacity="0" stroke="null"/>
    <g id="svg_11" display="none" stroke="null">
     <rect id="svg_12" width="580" height="400" x="-20.631481" y="-2.630755" stroke-width="0" fill="url(#gridpattern)" stroke="null"/>
    </g>
   </g>
   <g id="svg_16" transform="matrix(1.0305920246635862,0,0,1.0305920246635862,22.696451501443534,4.6448326637790345) " stroke="null">
    <title>Layer 1</title>
    <ellipse fill="#777777" stroke-width="0" stroke-opacity="null" cx="2.709335" cy="19.86518" id="svg_10" rx="22.843307" ry="22.843307" stroke="#000"/>
    <ellipse fill="#011c1b" stroke-width="0" stroke-opacity="null" cx="1.146821" cy="18.677638" id="svg_9" rx="22.655765" ry="22.655765" stroke="#000"/>
   </g>
  </g>
  <!-- Created with Method Draw - http://github.com/duopixel/Method-Draw/ -->
  <g stroke="null" id="svg_6">
   <path stroke="null" id="svg_5" fill="#fff" d="m34.578832,23.210939q1.17893,0 2.009251,0.830322t0.830322,2.009251l0,4.867839q0,0.177473 -0.11409,0.291563t-0.291563,0.11409l-1.21696,0l0,0.811307q0,1.014133 -0.709893,1.724026t-1.724026,0.709893t-1.724026,-0.709893t-0.709893,-1.724026l0,-0.811307l-12.980904,0l0,0.811307q0,1.014133 -0.709893,1.724026t-1.724026,0.709893t-1.724026,-0.709893t-0.709893,-1.724026l0,-0.811307l-1.21696,0q-0.177473,0 -0.291563,-0.11409t-0.11409,-0.291563l0,-4.867839q0,-1.17893 0.830322,-2.009251t2.009251,-0.830322l0.354947,0l1.33105,-5.311522q0.291563,-1.191606 1.318373,-1.996575t2.269123,-0.804968l1.622613,0l0,-2.839573q0,-0.177473 0.11409,-0.291563t0.291563,-0.11409l5.679146,0q0.177473,0 0.291563,0.11409t0.11409,0.291563l0,2.839573l1.622613,0q1.242313,0 2.269123,0.804968t1.318373,1.996575l1.33105,5.311522l0.354947,0zm-19.065703,6.084799q0.83666,0 1.432463,-0.595803t0.595803,-1.432463t-0.595803,-1.432463t-1.432463,-0.595803t-1.432463,0.595803t-0.595803,1.432463t0.595803,1.432463t1.432463,0.595803zm2.484626,-6.084799l12.879491,0l-1.128223,-4.525569q-0.025353,-0.101413 -0.177473,-0.221842t-0.26621,-0.120428l-9.735678,0q-0.11409,0 -0.26621,0.120428t-0.177473,0.221842l-1.128223,4.525569zm15.364117,6.084799q0.83666,0 1.432463,-0.595803t0.595803,-1.432463t-0.595803,-1.432463t-1.432463,-0.595803t-1.432463,0.595803t-0.595803,1.432463t0.595803,1.432463t1.432463,0.595803z"/>
  </g>
 </g>
</svg>