<svg width="49" height="49" xmlns="http://www.w3.org/2000/svg">
 <g>
  <title>background</title>
  <rect fill="none" id="canvas_background" height="51" width="51" y="-1" x="-1"/>
 </g>

 <g>
  <title>Layer 1</title>
  <g stroke="null" id="svg_17">
   <g stroke="null" transform="matrix(1.0305920246635862,0,0,1.0305920246635862,22.696451501443534,4.6448326637790345) " id="svg_15">
    <title>background</title>
    <rect stroke="null" fill-opacity="0" fill="#fff" id="svg_13" height="51" width="51" y="-5.630755" x="-23.631481"/>
    <g stroke="null" display="none" id="svg_11">
     <rect stroke="null" fill="url(#gridpattern)" stroke-width="0" y="-2.630755" x="-20.631481" height="400" width="580" id="svg_12"/>
    </g>
   </g>
   <g stroke="null" transform="matrix(1.0305920246635862,0,0,1.0305920246635862,22.696451501443534,4.6448326637790345) " id="svg_16">
    <title>Layer 1</title>
    <ellipse stroke="#000" ry="22.843307" rx="22.843307" id="svg_10" cy="19.86518" cx="2.709335" stroke-opacity="null" stroke-width="0" fill="#777777"/>
    <ellipse stroke="#000" ry="22.655765" rx="22.655765" id="svg_9" cy="18.677638" cx="1.146821" stroke-opacity="null" stroke-width="0" fill="#011c1b"/>
   </g>
  </g>
  <!-- Created with Method Draw - http://github.com/duopixel/Method-Draw/ -->
  <g stroke="null" id="svg_7">
   <path stroke="null" id="svg_4" fill="#fff" d="m28.591293,9.73272q2.728802,0 4.668463,1.379151t1.939662,3.340938l0,13.21625q0,1.917536 -1.85116,3.274562t-4.50621,1.430777l3.14181,2.979556q0.236004,0.221254 0.118002,0.51626t-0.442508,0.295006l-15.576295,0q-0.324506,0 -0.442508,-0.295006t0.118002,-0.51626l3.14181,-2.979556q-2.65505,-0.073751 -4.50621,-1.430777t-1.85116,-3.274562l0,-13.21625q0,-1.961787 1.939662,-3.340938t4.668463,-1.379151l9.440179,0zm-11.800224,19.352367q0.973518,0 1.666782,-0.693263t0.693263,-1.666782t-0.693263,-1.666782t-1.666782,-0.693263t-1.666782,0.693263t-0.693263,1.666782t0.693263,1.666782t1.666782,0.693263zm6.136116,-8.024152l0,-7.552143l-8.024152,0l0,7.552143l8.024152,0zm8.024152,8.024152q0.973518,0 1.666782,-0.693263t0.693263,-1.666782t-0.693263,-1.666782t-1.666782,-0.693263t-1.666782,0.693263t-0.693263,1.666782t0.693263,1.666782t1.666782,0.693263zm2.360045,-8.024152l0,-7.552143l-8.496161,0l0,7.552143l8.496161,0z"/>
  </g>
 </g>
</svg>