<svg width="49" height="49" xmlns="http://www.w3.org/2000/svg">
 <g>
  <title>background</title>
  <rect x="-1" y="-1" width="8.162197" height="8.162197" id="canvas_background" fill="none"/>
 </g>

 <g>
  <title>Layer 1</title>
  <g id="svg_17" stroke="null">
   <g id="svg_15" transform="matrix(1.0305920246635862,0,0,1.0305920246635862,22.696451501443534,4.6448326637790345) " stroke="null">
    <title>background</title>
    <rect x="-23.631481" y="-5.630755" width="51" height="51" id="svg_13" fill="#fff" fill-opacity="0" stroke="null"/>
    <g id="svg_11" display="none" stroke="null">
     <rect id="svg_12" width="580" height="400" x="-20.631481" y="-2.630755" stroke-width="0" fill="url(#gridpattern)" stroke="null"/>
    </g>
   </g>
   <g id="svg_16" transform="matrix(1.0305920246635862,0,0,1.0305920246635862,22.696451501443534,4.6448326637790345) " stroke="null">
    <title>Layer 1</title>
    <ellipse fill="#777777" stroke-width="0" stroke-opacity="null" cx="2.709335" cy="19.86518" id="svg_10" rx="22.843307" ry="22.843307" stroke="#000"/>
    <ellipse fill="#011c1b" stroke-width="0" stroke-opacity="null" cx="1.146821" cy="18.677638" id="svg_9" rx="22.655765" ry="22.655765" stroke="#000"/>
   </g>
  </g>
  <!-- Created with Method Draw - http://github.com/duopixel/Method-Draw/ -->
  <g stroke="null" id="svg_19">
   <path stroke="null" id="svg_18" fill="#fff" d="m20.010416,30.965279q0,-0.821904 -0.600622,-1.422526t-1.422526,-0.600622t-1.422526,0.600622t-0.600622,1.422526t0.600622,1.422526t1.422526,0.600622t1.422526,-0.600622t0.600622,-1.422526zm-6.069445,-8.092593l6.069445,0l0,-4.046296l-2.497324,0q-0.205476,0 -0.347729,0.142253l-3.08214,3.08214q-0.142253,0.142253 -0.142253,0.347729l0,0.474175zm20.231482,8.092593q0,-0.821904 -0.600622,-1.422526t-1.422526,-0.600622t-1.422526,0.600622t-0.600622,1.422526t0.600622,1.422526t1.422526,0.600622t1.422526,-0.600622t0.600622,-1.422526zm4.046296,-17.19676l0,16.185185q0,0.237088 -0.063223,0.418855t-0.213379,0.292408t-0.260796,0.181767t-0.371437,0.094835t-0.355632,0.031612t-0.403049,0t-0.355632,-0.007903q0,1.67542 -1.185438,2.860858t-2.860858,1.185438t-2.860858,-1.185438t-1.185438,-2.860858l-6.069445,0q0,1.67542 -1.185438,2.860858t-2.860858,1.185438t-2.860858,-1.185438t-1.185438,-2.860858l-1.011574,0q-0.047418,0 -0.355632,0.007903t-0.403049,0t-0.355632,-0.031612t-0.371437,-0.094835t-0.260796,-0.181767t-0.213379,-0.292408t-0.063223,-0.418855q0,-0.410952 0.300311,-0.711263t0.711263,-0.300311l0,-5.05787q0,-0.126447 -0.007903,-0.553205t0,-0.600622t0.039515,-0.545302t0.102738,-0.584816t0.221282,-0.482078t0.355632,-0.474175l3.129557,-3.129557q0.300311,-0.300311 0.798195,-0.505787t0.924642,-0.205476l2.528935,0l0,-3.034722q0,-0.410952 0.300311,-0.711263t0.711263,-0.300311l16.185185,0q0.410952,0 0.711263,0.300311t0.300311,0.711263z"/>
  </g>
 </g>
</svg>